<svg width="44" height="44" viewBox="0 0 44 44" fill="none" xmlns="http://www.w3.org/2000/svg">
<path d="M9 0C4.02944 0 0 4.02944 0 9V35C0 39.9706 4.02944 44 9 44H35C39.9706 44 44 39.9706 44 35V9C44 4.02944 39.9706 0 35 0H9Z" fill="#F1F3F9"></path>
<path d="M18.0951 29.8841C18.0951 30.4873 17.5949 30.9727 17.0065 30.9727H13.9909C13.3878 30.9727 12.9023 30.4873 12.9023 29.8841V21.3375C12.9023 20.7344 13.3878 20.2489 13.9909 20.2489H16.9918C17.5949 20.2489 18.0804 20.7344 18.0804 21.3375L18.0951 29.8841ZM30.8636 23.1763C31.5108 23.6911 31.6138 24.6326 31.0989 25.2798C30.893 25.5446 30.5988 25.7211 30.2752 25.7947C30.9224 26.3095 31.0254 27.251 30.5105 27.8835C30.3046 28.1483 30.0104 28.3248 29.672 28.4131C30.3193 28.928 30.4223 29.8694 29.8927 30.5167C29.6132 30.8697 29.1866 31.0757 28.7306 31.0757L20.2722 30.9874C19.6691 30.9874 19.1836 30.502 19.1836 29.8988V21.3375C19.1836 19.9841 23.5084 17.4981 23.7291 16.1595C23.8762 15.2769 23.685 13.0703 24.2734 13.0703C25.2884 13.0703 26.5682 13.4528 26.5682 15.6887C26.5682 17.6599 25.2737 20.2195 25.2737 20.2195H30.5105C31.3343 20.2195 31.9963 20.8815 31.9963 21.7052C32.0257 22.426 31.5402 23.0292 30.8636 23.1763Z" fill="#111113"></path>
</svg>