<svg width="44" height="44" viewBox="0 0 44 44" fill="none" xmlns="http://www.w3.org/2000/svg">
<path d="M9 0C4.02944 0 0 4.02944 0 9V35C0 39.9706 4.02944 44 9 44H35C39.9706 44 44 39.9706 44 35V9C44 4.02944 39.9706 0 35 0H9Z" fill="#F1F3F9"></path>
<path d="M31.102 21.5028C31.102 23.6617 27.0524 25.4119 24.8934 25.4119C22.7345 25.4119 20.9844 23.6617 20.9844 21.5028C20.9844 19.3439 22.7345 17.5938 24.8934 17.5938C27.0524 17.5938 31.102 19.3439 31.102 21.5028Z" fill="#111113"></path>
<path d="M15.1217 21.7388L15.3744 22.6232L15.1217 21.7388ZM8.25412 21.0466C7.87182 20.7121 7.29074 20.7508 6.95623 21.1331C6.62172 21.5154 6.66046 22.0965 7.04276 22.431L8.25412 21.0466ZM22.5949 21.7388C23.2006 21.0466 23.1999 21.046 23.1992 21.0454C23.199 21.0452 23.1982 21.0446 23.1978 21.0442C23.1968 21.0433 23.1958 21.0425 23.1948 21.0416C23.1927 21.0398 23.1905 21.0379 23.1882 21.036C23.1836 21.032 23.1785 21.0278 23.1728 21.0231C23.1615 21.0139 23.1483 21.0033 23.1329 20.9915C23.1021 20.9679 23.063 20.9394 23.0151 20.9075C22.9191 20.8436 22.7885 20.7658 22.6193 20.6842C22.2802 20.5204 21.7921 20.3437 21.1276 20.2289C19.7984 19.9991 17.7877 20.0205 14.869 20.8544L15.3744 22.6232C18.0893 21.8475 19.8152 21.8689 20.8143 22.0416C21.3138 22.1279 21.6377 22.253 21.8196 22.3408C21.9109 22.3849 21.968 22.4203 21.9946 22.4381C22.008 22.447 22.0139 22.4516 22.0129 22.4508C22.0123 22.4504 22.01 22.4486 22.0061 22.4454C22.0041 22.4437 22.0017 22.4417 21.9989 22.4394C21.9975 22.4382 21.996 22.4369 21.9944 22.4355C21.9935 22.4348 21.9927 22.4341 21.9919 22.4333C21.9914 22.433 21.9908 22.4324 21.9906 22.4322C21.9899 22.4316 21.9892 22.431 22.5949 21.7388ZM14.869 20.8544C12.154 21.6301 10.4281 21.6088 9.42908 21.4361C8.92955 21.3497 8.60558 21.2246 8.42377 21.1369C8.33243 21.0928 8.27538 21.0573 8.24869 21.0395C8.2353 21.0306 8.22938 21.026 8.23047 21.0269C8.23101 21.0273 8.23329 21.029 8.23726 21.0323C8.23924 21.0339 8.24164 21.0359 8.24445 21.0383C8.24586 21.0395 8.24737 21.0408 8.24898 21.0422C8.24978 21.0428 8.25062 21.0436 8.25147 21.0443C8.2519 21.0447 8.25256 21.0453 8.25278 21.0454C8.25344 21.046 8.25412 21.0466 7.64844 21.7388C7.04276 22.431 7.04345 22.4316 7.04414 22.4322C7.04438 22.4324 7.04509 22.4331 7.04557 22.4335C7.04654 22.4343 7.04754 22.4352 7.04857 22.4361C7.05063 22.4379 7.05282 22.4397 7.05513 22.4417C7.05976 22.4456 7.06488 22.4499 7.07052 22.4545C7.08178 22.4637 7.09508 22.4744 7.11047 22.4862C7.14126 22.5098 7.18037 22.5382 7.22828 22.5701C7.3242 22.6341 7.45488 22.7118 7.62402 22.7935C7.96318 22.9572 8.45121 23.1339 9.11578 23.2488C10.4449 23.4785 12.4557 23.4571 15.3744 22.6232L14.869 20.8544Z" fill="black"></path>
<rect width="4.22051" height="5.84265" transform="matrix(1 0 0 -1 29.832 14.2422)" fill="#111113"></rect>
<path d="M31.941 19.4375L35.9992 14.244H27.8828L31.941 19.4375Z" fill="#111113"></path>
<rect x="29.832" y="28.7656" width="4.22051" height="5.84265" fill="#111113"></rect>
<path d="M31.941 23.5703L35.9992 28.7638H27.8828L31.941 23.5703Z" fill="#111113"></path>
</svg>