<svg width="37" height="37" viewBox="0 0 37 37" fill="none" xmlns="http://www.w3.org/2000/svg">
<circle opacity="0.07" cx="18.5" cy="18.5" r="18.5" fill="white"></circle>
<path fill-rule="evenodd" clip-rule="evenodd" d="M16.7426 8.06546C14.2829 8.26683 11.8709 8.72188 9.89614 9.35691L9 9.64516V15.5683C9 22.226 9.05391 22.716 9.98059 24.4903C11.3036 27.0236 14.0013 29.0914 17.3778 30.1605L18.6995 30.5789L20.0275 30.1674C23.4657 29.102 26.1729 27.0233 27.4978 24.4313C28.4402 22.5875 28.4947 22.0997 28.4976 15.4741L28.5 9.63439L27.3562 9.27726C24.2781 8.31615 19.8525 7.81093 16.7426 8.06546ZM20.7574 12.3147V16.141H24.4136H28.0699V18.0541V19.9673H24.4136H20.7574V24.7107V29.454L19.7654 29.7519C18.7777 30.0484 18.7696 30.0485 17.7939 29.7794L16.8143 29.5091L16.7766 24.7381L16.7388 19.9673H13.0845H9.43015V18.0541V16.141H13.0864H16.7426V12.3147V8.48833H18.75H20.7574V12.3147Z" fill="white"></path>
</svg>