<svg width="44" height="44" viewBox="0 0 44 44" fill="none" xmlns="http://www.w3.org/2000/svg">
<g id="icon_prostate">
<path id="Rectangle Copy" d="M9 0C4.02944 0 0 4.02944 0 9V35C0 39.9706 4.02944 44 9 44H35C39.9706 44 44 39.9706 44 35V9C44 4.02944 39.9706 0 35 0H9Z" fill="#F1F3F9"></path>
<path id="Vector" fill-rule="evenodd" clip-rule="evenodd" d="M20.6325 8.52885C16.8658 9.00816 13.0594 11.2391 12.4054 14.2318C12.295 14.7372 12.3045 15.9163 12.4235 16.4678C13.0171 19.2192 16.9543 22.205 19.5264 23.025C20.0158 23.1809 20.3395 23.3856 20.5599 23.6783C20.8185 24.0218 20.8684 24.251 20.8684 25.0948C20.8684 25.7386 20.8595 25.8384 20.7869 26.0082C20.5922 26.4631 20.5069 26.9485 20.4859 27.7203C20.4624 28.586 20.5199 29.0454 20.7312 29.6785L20.8672 30.0862L20.8417 33.0425L20.8162 35.9988H22.0418H23.2673L23.2679 35.8903C23.2681 35.8307 23.2947 34.4243 23.3268 32.765C23.3815 29.9394 23.3903 29.7321 23.4647 29.4954C23.73 28.6528 23.729 27.2264 23.4626 26.3616C23.3867 26.115 23.3815 26.0181 23.3928 25.0624C23.405 24.03 23.405 24.0297 23.5117 23.8129C23.7425 23.3439 24.0046 23.1407 24.7539 22.8495C27.1467 21.9199 30.8003 19.0557 31.3575 16.472C31.4774 15.9158 31.4872 14.7397 31.3762 14.2297C30.8798 11.9487 28.0974 10.0481 25.4918 9.08317C24.991 8.8977 24.043 8.65726 23.4639 8.5688C22.8659 8.4775 21.2188 8.45424 20.6325 8.52885ZM16.8375 23.5608C15.9391 23.7467 15.2678 24.4058 15.0122 25.3531C14.6526 26.6858 14.9264 28.7441 15.6567 30.1976C16.4243 31.7257 17.8727 33.1271 19.7593 34.1673L20.2195 34.4211L20.2297 32.4709L20.24 30.5208L20.1393 30.1739C19.9416 29.4924 19.8734 28.9832 19.871 28.1706C19.8685 27.3013 19.9111 27.012 20.1865 26.0259C20.4039 25.2478 20.4189 24.9971 20.2663 24.6951C20.0081 24.1842 19.2385 23.7276 18.3511 23.5588C17.9517 23.4828 17.2096 23.4838 16.8375 23.5608ZM25.9383 23.7318C24.9633 23.9112 24.152 24.3775 23.9103 24.8974C23.77 25.1991 23.7865 25.4572 23.9945 26.2209C24.223 27.0595 24.2921 27.5399 24.2921 28.2889C24.2921 29.1115 24.193 29.7426 23.9234 30.6354C23.8821 30.7724 23.8676 31.2434 23.8601 32.6997L23.8503 34.5866L23.9422 34.5583C24.1067 34.5075 24.8092 34.1052 25.3123 33.7736C27.0824 32.6069 28.3122 31.1404 28.8697 29.5312C29.161 28.6903 29.3559 27.3686 29.3087 26.5537C29.2194 25.0108 28.6145 24.1098 27.4556 23.7933C27.1846 23.7193 26.2191 23.6802 25.9383 23.7318Z" fill="#111113"></path>
</g>
</svg>