<svg width="44" height="44" viewBox="0 0 44 44" fill="none" xmlns="http://www.w3.org/2000/svg">
<path d="M9 0C4.02944 0 0 4.02944 0 9V35C0 39.9706 4.02944 44 9 44H35C39.9706 44 44 39.9706 44 35V9C44 4.02944 39.9706 0 35 0H9Z" fill="#F1F3F9"></path>
<path fill-rule="evenodd" clip-rule="evenodd" d="M30.1682 15.5133C30.3623 15.5314 30.5425 15.6214 30.6738 15.7654C30.805 15.9095 30.8778 16.0974 30.8778 16.2923C30.8778 16.4872 30.805 16.6751 30.6738 16.8192C30.5425 16.9633 30.3623 17.0532 30.1682 17.0713C30.0598 17.0815 29.9504 17.0689 29.8472 17.0343C29.7439 16.9998 29.649 16.9441 29.5685 16.8708C29.488 16.7974 29.4236 16.7081 29.3796 16.6085C29.3356 16.5089 29.3129 16.4012 29.3129 16.2923C29.3129 16.1834 29.3356 16.0757 29.3796 15.9761C29.4236 15.8765 29.488 15.7872 29.5685 15.7139C29.649 15.6405 29.7439 15.5848 29.8472 15.5503C29.9504 15.5157 30.0598 15.5031 30.1682 15.5133ZM13.2746 28.4131C13.1198 28.4131 12.9686 28.3672 12.8399 28.2813C12.7112 28.1953 12.6109 28.0731 12.5517 27.9301C12.4925 27.7872 12.477 27.6298 12.5072 27.4781C12.5374 27.3263 12.6119 27.1869 12.7213 27.0774C12.8308 26.968 12.9702 26.8935 13.1219 26.8633C13.2737 26.8331 13.431 26.8486 13.574 26.9078C13.717 26.9671 13.8392 27.0673 13.9251 27.196C14.0111 27.3247 14.057 27.476 14.057 27.6307C14.057 27.8382 13.9746 28.0372 13.8278 28.184C13.6811 28.3307 13.4821 28.4131 13.2746 28.4131ZM25.739 17.8129C24.9297 17.0584 23.907 16.5724 22.8109 16.4213C21.7148 16.2703 20.5988 16.4617 19.6156 16.9693C17.5745 18.0647 16.3907 20.759 16.656 24.052C15.5005 23.4917 14.4562 22.7263 13.5739 21.7931C11.2675 19.337 10.5055 16.4522 11.6281 14.6492C12.7507 12.8462 15.7579 12.0094 18.0372 14.4655C18.7788 11.2065 21.786 10.3833 23.6707 11.4243C25.4056 12.37 26.2084 14.8669 25.739 17.8129Z" fill="#111113"></path>
<path fill-rule="evenodd" clip-rule="evenodd" d="M30.4595 28.6956C28.8062 30.5394 25.5404 31.9614 22.9006 32.7778C21.2541 30.9884 19.3966 28.5663 18.6618 26.3483C17.6005 23.4975 18.138 19.3337 20.3287 18.3267C21.1742 17.9005 22.1479 17.8037 23.0607 18.0552C23.9736 18.3066 24.7603 18.8884 25.2682 19.6875C25.6006 20.1989 25.8315 20.7694 25.9486 21.368C26.0575 21.2523 26.1799 21.1503 26.2684 21.0482C28.4932 19.0071 31.2895 19.8031 32.3917 21.5585C33.4939 23.3138 32.7319 26.2326 30.4595 28.6956ZM29.0443 11.7407C29.044 11.6778 29.0626 11.6162 29.0978 11.564C29.133 11.5118 29.1831 11.4714 29.2416 11.4482C29.2999 11.422 29.365 11.4151 29.4274 11.4286C29.4898 11.4421 29.5463 11.4751 29.5886 11.523L29.8948 11.8632C29.9251 11.8959 29.962 11.9218 30.003 11.9394C30.0441 11.957 30.0883 11.9658 30.1329 11.9652H30.5888C30.6526 11.9615 30.7161 11.9779 30.7702 12.0121C30.8242 12.0463 30.8662 12.0966 30.8903 12.156C30.9143 12.2153 30.9191 12.2806 30.9041 12.3428C30.8891 12.405 30.8549 12.4609 30.8065 12.5027L30.4731 12.8089C30.4393 12.8384 30.4126 12.8751 30.395 12.9164C30.3773 12.9576 30.3691 13.0022 30.371 13.047V13.5029C30.3725 13.5666 30.3544 13.6293 30.3192 13.6824C30.2841 13.7356 30.2336 13.7768 30.1744 13.8005C30.1152 13.8241 30.0502 13.8292 29.9881 13.8149C29.9259 13.8006 29.8697 13.7677 29.8267 13.7206L29.5206 13.3872C29.4911 13.3535 29.4543 13.3268 29.4131 13.3091C29.3719 13.2914 29.3272 13.2833 29.2824 13.2852H28.8266C28.7627 13.286 28.7 13.2676 28.6467 13.2324C28.5933 13.1972 28.5517 13.1469 28.5272 13.0879C28.5029 13.0287 28.4977 12.9635 28.5123 12.9013C28.527 12.839 28.5607 12.7829 28.6089 12.7409L28.9423 12.4347C28.976 12.4052 29.0027 12.3685 29.0204 12.3272C29.038 12.286 29.0462 12.2414 29.0443 12.1966V11.7407ZM16.3214 31.0225C16.2988 31.0818 16.2588 31.1329 16.2065 31.1689C16.1543 31.205 16.0923 31.2243 16.0288 31.2243C15.9653 31.2243 15.9034 31.205 15.8511 31.1689C15.7988 31.1329 15.7588 31.0818 15.7362 31.0225L15.5798 30.5938C15.5446 30.5111 15.4788 30.4453 15.3961 30.4101L14.9674 30.2536C14.9081 30.2311 14.857 30.191 14.821 30.1388C14.7849 30.0865 14.7656 30.0246 14.7656 29.9611C14.7656 29.8976 14.7849 29.8356 14.821 29.7834C14.857 29.7311 14.9081 29.6911 14.9674 29.6685L15.3961 29.512C15.4383 29.4968 15.4766 29.4724 15.5084 29.4406C15.5401 29.4089 15.5645 29.3705 15.5798 29.3283C15.6206 29.2263 15.675 29.0698 15.7362 28.9065C15.7588 28.8472 15.7988 28.7961 15.8511 28.76C15.9034 28.724 15.9653 28.7047 16.0288 28.7047C16.0923 28.7047 16.1543 28.724 16.2065 28.76C16.2588 28.7961 16.2988 28.8472 16.3214 28.9065C16.3826 29.0698 16.4438 29.2263 16.4778 29.3283C16.4931 29.3705 16.5175 29.4089 16.5492 29.4406C16.581 29.4724 16.6193 29.4968 16.6615 29.512L17.0902 29.6685C17.1495 29.6911 17.2006 29.7311 17.2366 29.7834C17.2727 29.8356 17.292 29.8976 17.292 29.9611C17.292 30.0246 17.2727 30.0865 17.2366 30.1388C17.2006 30.191 17.1495 30.2311 17.0902 30.2536L16.6615 30.4101C16.5788 30.4453 16.513 30.5111 16.4778 30.5938C16.4438 30.7027 16.3826 30.8592 16.3214 31.0225Z" fill="#111113"></path>
</svg>