<svg width="22" height="22" viewBox="0 0 22 22" fill="none" xmlns="http://www.w3.org/2000/svg">
<g id="icon_sound">
<path id="image 306 (Traced)" fill-rule="evenodd" clip-rule="evenodd" d="M11.8146 5.0181C11.7552 5.0353 10.7817 5.78054 9.65119 6.67419L7.59571 8.29898L7.53902 11.7109C7.50786 13.5875 7.4845 15.1244 7.4871 15.1262C7.48973 15.1281 8.43403 15.8737 9.5856 16.7834C10.8684 17.7967 11.7307 18.4546 11.812 18.4823C12.0362 18.5587 12.3018 18.4536 12.4107 18.2455C12.4607 18.1501 12.4659 17.5313 12.4662 11.7498C12.4665 5.54043 12.4646 5.35641 12.4009 5.24863C12.2885 5.05832 12.0285 4.95612 11.8146 5.0181ZM17.5991 6.19259C17.4124 6.27458 17.2703 6.48206 17.2703 6.67265C17.2703 6.71622 17.381 6.97303 17.5162 7.24331C18.5148 9.23932 18.8359 11.283 18.4791 13.3724C18.3006 14.4179 18.0208 15.2569 17.5133 16.2687C17.2988 16.6964 17.267 16.7831 17.2822 16.8985C17.33 17.2614 17.7354 17.4665 18.0491 17.2866C18.1643 17.2206 18.2209 17.1442 18.3856 16.832C20.0805 13.6215 20.0805 9.89371 18.3856 6.67446C18.207 6.33516 18.1724 6.29066 18.0331 6.22126C17.858 6.134 17.7489 6.12679 17.5991 6.19259ZM15.6434 7.68967C15.5002 7.78507 15.4013 7.96275 15.4012 8.12471C15.4012 8.19196 15.4746 8.39916 15.5754 8.61615C16.4929 10.5914 16.4923 12.9174 15.5738 14.8949C15.3855 15.3003 15.3655 15.4338 15.4653 15.6194C15.568 15.8105 15.7307 15.9012 15.9409 15.8846C16.1929 15.8646 16.3068 15.7702 16.4584 15.4557C16.8307 14.6832 17.084 13.8549 17.2242 12.9509C17.3112 12.3904 17.3105 11.1067 17.2229 10.5395C17.0521 9.4337 16.5151 7.91692 16.221 7.71002C16.0615 7.5978 15.7955 7.58843 15.6434 7.68967ZM3.51948 8.63548C2.95421 8.78129 2.54753 9.18852 2.39706 9.75942C2.32077 10.0489 2.32077 13.4587 2.39706 13.7481C2.51046 14.1783 2.79242 14.5417 3.16646 14.7396C3.5036 14.9181 3.67469 14.9335 5.32744 14.9342L6.8384 14.9347L6.8581 14.5499C6.87734 14.1742 6.95086 9.67056 6.94965 8.94048L6.94906 8.57278L5.34817 8.57477C3.95063 8.57648 3.71834 8.58421 3.51948 8.63548ZM13.7916 9.14984C13.638 9.21917 13.4974 9.42525 13.4974 9.58115C13.4974 9.63208 13.5511 9.83009 13.6168 10.0212C13.8378 10.6643 13.8916 11.0032 13.8916 11.7538C13.8916 12.5052 13.837 12.8485 13.6167 13.4823C13.5511 13.671 13.4974 13.869 13.4974 13.9222C13.4974 14.0797 13.632 14.2769 13.7916 14.3533C13.9737 14.4403 14.0616 14.4394 14.2525 14.348C14.3839 14.2852 14.421 14.2427 14.5055 14.0587C14.6285 13.7905 14.7854 13.2441 14.8681 12.7956C14.9565 12.3161 14.9565 11.1914 14.8681 10.7119C14.7827 10.2486 14.6217 9.69457 14.4985 9.43948C14.4142 9.26483 14.3709 9.21609 14.2476 9.15713C14.0657 9.07015 13.9715 9.06864 13.7916 9.14984Z" fill="#5773D6"></path>
</g>
</svg>