<svg xmlns="http://www.w3.org/2000/svg" width="37" height="38" viewBox="0 0 37 38" fill="none">
    <circle opacity="0.07" cx="18.5" cy="18.7422" r="18.5" fill="white"></circle>
    <path d="M29.6068 19.0241C29.5715 19.5926 29.5539 20.1495 29.4971 20.7006C29.3669 21.9996 29.0532 23.2741 28.5649 24.487C28.0762 25.7457 27.3895 26.9205 26.53 27.9678C26.2145 28.3569 25.8771 28.7281 25.5194 29.0797C24.8428 29.7225 24.0891 30.281 23.275 30.7428C22.4488 31.1971 21.5658 31.5424 20.6486 31.7696C20.3318 31.8494 20.0089 31.9031 19.6831 31.9301C19.2646 31.9794 18.8433 32.0027 18.4218 31.9998C17.9694 31.9882 17.517 31.9166 17.0627 31.8799C16.4706 31.8116 15.8895 31.67 15.3333 31.4583C14.3326 31.1182 13.3951 30.6185 12.5581 29.979C12.0875 29.633 11.6437 29.253 11.2303 28.8419C10.5604 28.1455 9.96932 27.379 9.46763 26.5562C8.95508 25.7267 8.53795 24.8432 8.22399 23.9223C7.96812 23.2415 7.78371 22.5364 7.67366 21.8184C7.63253 21.4858 7.55811 21.159 7.49935 20.8302C7.48931 20.7856 7.48211 20.7404 7.47781 20.6948C7.40539 19.9235 7.38249 19.1485 7.40926 18.3743C7.45929 17.5572 7.56133 16.7441 7.71479 15.9397C7.85757 15.2579 8.04533 14.5861 8.27687 13.9285C8.68496 12.7559 9.26425 11.6484 9.99643 10.6411C10.2961 10.2273 10.6329 9.83857 10.9757 9.45568C11.6445 8.71523 12.4167 8.07256 13.2691 7.54703C14.3071 6.89076 15.4602 6.43167 16.669 6.19338C17.1158 6.09841 17.5712 6.04852 18.0282 6.04448C18.2377 6.04448 18.4473 6 18.6569 6C18.9843 6.00492 19.3113 6.02816 19.6361 6.06962C19.9946 6.11483 20.3502 6.17939 20.7015 6.26299C21.7725 6.52686 22.7931 6.9605 23.7235 7.54703C24.3472 7.93667 24.9304 8.3862 25.4646 8.88908C25.8765 9.28548 26.2618 9.70793 26.6181 10.1538C27.1761 10.8545 27.6586 11.6109 28.0576 12.4105C28.5368 13.3628 28.9047 14.3658 29.1544 15.4001C29.3472 16.1492 29.4685 16.9145 29.5167 17.6859C29.5402 18.1345 29.5774 18.5851 29.6068 19.0241ZM18.4728 31.5937C18.743 31.5937 19.0153 31.6091 19.2836 31.5937C19.5506 31.5665 19.8159 31.5258 20.0787 31.4718C21.0815 31.2932 22.0468 30.9493 22.9342 30.4547C23.7808 29.999 24.5527 29.4193 25.2237 28.7355C25.6601 28.2824 26.0726 27.8073 26.4595 27.3123C27.0178 26.5825 27.4841 25.7883 27.848 24.9472C28.6554 23.1127 29.0746 21.1346 29.0799 19.1343C29.0799 18.7301 29.029 18.326 29.0192 17.9218C29.0043 17.4831 28.9559 17.0461 28.8743 16.6146C28.7157 15.6304 28.4532 14.6653 28.0909 13.7351C27.8282 13.067 27.5126 12.4204 27.1469 11.8014C26.4975 10.6977 25.6684 9.70726 24.6929 8.86974C24.4164 8.61918 24.1225 8.38786 23.8136 8.17744C23.2175 7.78359 22.587 7.44317 21.9295 7.16027C21.0451 6.79253 20.1069 6.56665 19.1504 6.49118C18.3892 6.42994 17.6232 6.46961 16.8727 6.60914C15.7897 6.8031 14.7505 7.18619 13.8037 7.74041C12.7629 8.35847 11.8331 9.14261 11.0521 10.061C10.4938 10.7166 9.99872 11.4222 9.57339 12.1688C9.01954 13.175 8.59518 14.2456 8.31017 15.3557C8.13404 16.0369 8.01224 16.7306 7.94589 17.4306C7.86656 18.0502 7.82731 18.6741 7.82838 19.2986C7.82838 19.5752 7.85971 19.8517 7.88713 20.1263C7.93414 20.5982 7.9596 21.0739 8.04577 21.538C8.18271 22.239 8.35991 22.9318 8.57652 23.6129C8.98002 24.8615 9.57443 26.0419 10.3392 27.1131C10.9513 27.9812 11.6814 28.7621 12.5092 29.4336C13.2293 30.0276 14.0328 30.5154 14.8946 30.882C16.0186 31.3788 17.2417 31.6188 18.4728 31.584V31.5937Z" fill="white"></path>
    <path d="M28.7313 19.0531C28.7313 19.2851 28.7313 19.5172 28.7313 19.7492C28.6964 20.3252 28.631 20.8991 28.5354 21.4684C28.3945 22.3818 28.1508 23.2769 27.8088 24.137C27.4104 25.1906 26.8667 26.1849 26.1931 27.0918C25.8904 27.5024 25.5634 27.8951 25.2138 28.2676C24.5426 28.9666 23.7759 29.5699 22.9361 30.0602C22.1596 30.5161 21.3148 30.8476 20.4332 31.0425C19.8972 31.1597 19.3521 31.2308 18.8037 31.2553C17.7769 31.3137 16.7481 31.1825 15.77 30.8685C14.8557 30.576 13.9958 30.1383 13.224 29.5729C12.5685 29.1033 11.967 28.5644 11.43 27.9659C10.9022 27.376 10.4357 26.7353 10.0375 26.0534C9.42472 25.0233 8.96313 23.9125 8.66657 22.7543C8.54906 22.2515 8.43155 21.7449 8.33754 21.2344C8.28075 20.9288 8.27292 20.6156 8.23766 20.3042C8.1721 19.7401 8.15246 19.1717 8.17891 18.6044C8.19849 18.1906 8.25137 17.7787 8.29838 17.3668C8.34342 16.98 8.37867 16.6068 8.45505 16.2336C8.62374 15.361 8.88027 14.5072 9.22082 13.6849C9.53035 12.9455 9.90384 12.2338 10.3372 11.5577C11.1854 10.2301 12.3104 9.09623 13.6372 8.2316C14.5511 7.6418 15.5656 7.22051 16.6317 6.98817C17.4826 6.80786 18.3563 6.75635 19.2228 6.8354C19.7918 6.89276 20.3543 7.00151 20.9032 7.16028C21.9514 7.4599 22.9356 7.94546 23.8076 8.59321C24.4708 9.07399 25.0748 9.62952 25.6075 10.2485C26.3692 11.1315 27.0015 12.1157 27.4857 13.1724C27.9302 14.1288 28.2589 15.1335 28.4649 16.1659C28.5785 16.7448 28.6647 17.3249 28.7234 17.9063C28.7607 18.2931 28.7234 18.6798 28.7234 19.0666L28.7313 19.0531ZM13.4668 28.314L13.3219 28.167L13.2808 28.2289L13.4766 28.3082C13.5941 28.5518 13.8566 28.4861 14.0642 28.5924C14.2354 28.5335 14.3995 28.4564 14.5538 28.3623C14.6759 28.2803 14.7747 28.1689 14.8408 28.0386C14.907 27.9083 14.9383 27.7634 14.9318 27.6178C14.9246 27.4596 14.877 27.3057 14.7935 27.1704C14.7099 27.0352 14.5931 26.923 14.4539 26.8443C14.4363 26.8327 14.4069 26.8443 14.3854 26.8443L13.9388 26.4266C13.6999 26.9855 13.2103 27.3587 12.9596 27.8905C13.0105 27.9427 13.0477 27.9872 13.0888 28.0239C13.1334 28.0574 13.1798 28.0884 13.2279 28.1167L13.2103 27.9233L14.1092 26.7631L14.3991 26.8366L14.6615 27.173L14.7555 27.4844C14.7213 27.5985 14.6794 27.7103 14.6302 27.8189C14.3384 28.3449 14.0465 28.4667 13.4668 28.314ZM25.7857 25.4423C25.791 25.4423 25.7963 25.4412 25.8012 25.4392C25.8061 25.4371 25.8105 25.4341 25.8141 25.4303C25.8178 25.4265 25.8206 25.422 25.8225 25.4171C25.8243 25.4122 25.8252 25.4069 25.8249 25.4017C26.0031 25.3011 25.9894 25.1116 26.0462 24.9704C25.9522 24.6359 25.9052 24.545 25.7779 24.4889C25.5703 24.3942 25.3862 24.4754 25.1903 24.6127C25.1335 24.342 25.0082 24.1776 24.7693 24.1428C24.3443 24.2453 24.2698 24.632 24.0662 24.9163C24.6361 25.1232 25.065 25.5332 25.5997 25.7846L25.7857 25.4423ZM8.91922 16.5933C8.98385 16.69 9.00343 16.748 9.04456 16.7751C9.29942 16.9595 9.56782 17.125 9.84754 17.2701C10.3834 17.5 10.9428 17.6718 11.5162 17.7826C12.0848 17.9147 12.662 18.0084 13.2436 18.063C13.477 18.0711 13.7091 18.1009 13.9369 18.1519C14.4892 18.3047 14.8025 18.7205 15.0219 19.2136C15.0875 19.3736 15.1425 19.5376 15.1864 19.7048C15.252 19.9214 15.3635 20.1219 15.5134 20.2929C15.6633 20.4639 15.8482 20.6015 16.0559 20.6968C16.2655 20.7993 16.4692 20.9153 16.667 21.0371C17.3192 21.4394 17.515 22.0234 17.4132 22.7466C17.3506 23.1455 17.3133 23.5479 17.3015 23.9513C17.2914 24.3791 17.3137 24.807 17.3681 25.2315C17.4355 25.664 17.5264 26.0927 17.6404 26.5155C17.717 26.7639 17.8565 26.9889 18.0458 27.1692C17.9753 26.678 17.8813 26.2622 17.8636 25.8426C17.7913 24.8347 17.8359 23.8219 17.9968 22.8239C18.0452 22.5984 18.0656 22.3679 18.0575 22.1375C18.0559 21.8763 17.9873 21.6199 17.8582 21.392C17.7291 21.1641 17.5436 20.9721 17.3192 20.8341C16.9752 20.6306 16.615 20.4554 16.242 20.31C16.0746 20.2573 15.925 20.1601 15.8096 20.0292C15.6943 19.8982 15.6176 19.7385 15.5879 19.5675C15.5291 19.2851 15.4586 19.0067 15.3783 18.7301C15.1433 17.9353 14.4911 17.5544 13.7586 17.508C13.1711 17.4693 12.5659 17.4442 11.9725 17.3707C11.4278 17.3046 10.8895 17.1953 10.3626 17.0439C9.90434 16.9124 9.45193 16.7615 8.91922 16.5933ZM28.0791 16.5933C27.9166 16.6416 27.8382 16.6629 27.7638 16.688C27.1196 16.9285 26.4568 17.1174 25.7818 17.2527C25.0713 17.3898 24.351 17.4713 23.6275 17.4964C23.4059 17.499 23.1851 17.521 22.9675 17.5621C22.6637 17.6068 22.3794 17.7365 22.1482 17.936C21.917 18.1355 21.7486 18.3964 21.6631 18.6876C21.5756 18.974 21.5049 19.2652 21.4516 19.5597C21.4218 19.7075 21.3573 19.8464 21.2635 19.9653C21.1696 20.0841 21.0489 20.1797 20.911 20.2443C20.7152 20.339 20.5193 20.4086 20.3352 20.5034C20.0781 20.615 19.8322 20.7503 19.6008 20.9076C18.9819 21.3833 18.9075 22.0466 19.0015 22.7601C19.0681 23.2726 19.1464 23.787 19.1856 24.3072C19.2111 24.6896 19.2111 25.0734 19.1856 25.4558C19.166 25.8 19.1092 26.1423 19.0661 26.4865C19.0407 26.6799 19.0093 26.8907 18.98 27.1131C19.1504 27.0609 19.1758 26.9197 19.2424 26.823C19.5793 26.1926 19.6341 25.4964 19.6811 24.808C19.7144 24.3923 19.6811 23.9726 19.6811 23.5549C19.6811 23.3615 19.6674 23.1682 19.6576 22.9651C19.6439 22.6518 19.6145 22.3405 19.6184 22.0292C19.626 21.899 19.6678 21.773 19.7399 21.6637C19.9906 21.2678 20.3594 20.9584 20.7955 20.778C21.062 20.6691 21.2989 20.5001 21.4873 20.2845C21.6757 20.0689 21.8104 19.8127 21.8805 19.5365C21.9689 19.1868 22.1401 18.8627 22.3799 18.5909C22.5993 18.3305 22.9095 18.1607 23.2495 18.1152C23.7939 18.0456 24.3423 17.9972 24.8809 17.9025C25.6655 17.7786 26.4335 17.5677 27.1704 17.274C27.5364 17.1438 27.8535 16.9063 28.0791 16.5933ZM16.8746 17.8522C16.8433 18.2157 16.7982 18.5387 16.7963 18.8597C16.7877 19.1848 16.8739 19.5055 17.0448 19.7836C17.2156 20.0616 17.4638 20.2853 17.7598 20.428C17.9028 20.5053 18.0419 20.5885 18.2475 20.7084C18.3588 20.7396 18.4757 20.746 18.5898 20.7273C18.7039 20.7086 18.8124 20.6651 18.9075 20.6001C18.9858 20.5479 19.0642 20.4976 19.1464 20.4531C19.8397 20.078 20.2393 19.5307 20.1805 18.7127C20.159 18.4265 20.1276 18.1423 20.0983 17.8425C19.4839 17.7561 18.9139 17.4768 18.4727 17.0458C18.0493 17.4874 17.4851 17.772 16.8746 17.8522ZM21.0246 25.3379L21.0951 25.3611C21.2997 25.1091 21.4856 24.8428 21.6513 24.5644C22.2069 23.4997 22.4479 22.3022 22.3466 21.1087C22.3466 21.0023 22.3466 20.9308 22.4093 20.8824C22.754 20.8379 23.085 20.8244 23.4022 20.7509C24.3755 20.5304 25.2892 20.1057 26.0815 19.5056C26.2799 19.344 26.4459 19.1473 26.5711 18.9254C26.3028 19.0531 26.056 19.2058 25.7975 19.3354C24.8061 19.8639 23.7101 20.1727 22.5855 20.2404C22.4465 20.2347 22.3081 20.2614 22.1815 20.3184C22.0549 20.3754 21.9437 20.4611 21.8569 20.5684C21.7701 20.6758 21.7102 20.8019 21.6819 20.9364C21.6537 21.0709 21.658 21.2101 21.6944 21.3427C21.7194 21.4558 21.7325 21.5711 21.7336 21.6869C21.7555 22.103 21.7351 22.5202 21.6729 22.9322C21.6278 23.2049 21.5946 23.4795 21.5436 23.7502C21.4314 24.228 21.2754 24.6947 21.0775 25.1445C21.054 25.2064 21.0403 25.2702 21.0246 25.3379ZM10.4645 18.8945L10.4273 18.9293C10.4447 18.9778 10.4705 19.023 10.5036 19.0627C10.7554 19.3224 11.0286 19.5611 11.3203 19.7763C12.2488 20.391 13.3204 20.7623 14.4343 20.8554C14.5131 20.8709 14.5904 20.8929 14.6654 20.9211C14.6654 21.1145 14.6654 21.2672 14.6654 21.4297C14.6603 21.8231 14.6806 22.2165 14.7261 22.6074C14.845 23.3862 15.1143 24.1353 15.5193 24.8138C15.6519 25.0051 15.7999 25.1856 15.9619 25.3533L15.9972 25.3282L15.9482 25.1696C15.7818 24.6784 15.5565 24.2027 15.4704 23.6903C15.3748 23.2851 15.3171 22.8721 15.298 22.4565C15.3117 22.0156 15.3137 21.5728 15.3117 21.1319C15.3141 21.0055 15.2963 20.8795 15.2588 20.7587C15.1178 20.3526 14.7633 20.2481 14.3912 20.2307C14.006 20.2067 13.6234 20.151 13.2475 20.0644C12.4449 19.8921 11.6767 19.5903 10.9737 19.171C10.8111 19.0724 10.6388 18.9873 10.4645 18.8945ZM23.3905 9.41894C23.2951 9.52106 23.2277 9.64553 23.1946 9.78056C22.9988 10.2891 22.8186 10.8016 22.6071 11.2986C22.2367 12.0874 21.7697 12.8284 21.2166 13.505C20.9401 13.8412 20.7926 14.2629 20.8001 14.6959C20.8077 15.1289 20.9697 15.5454 21.2577 15.872C21.6043 16.28 21.9334 16.6958 21.9608 17.2856C22.0859 17.1194 22.1576 16.92 22.1667 16.7132C22.1758 16.5063 22.1218 16.3015 22.0117 16.1253C21.8922 15.9319 21.761 15.7386 21.6611 15.5258C21.4026 14.9882 21.3262 14.4507 21.6749 13.9073C21.9627 13.4586 22.233 13.0003 22.4915 12.5343C22.8899 11.8402 23.1873 11.0942 23.3748 10.3182C23.432 10.0224 23.4412 9.71952 23.4022 9.42088L23.3905 9.41894ZM15.0552 17.2817C15.0904 17.1115 15.1139 16.9665 15.1492 16.8234C15.2373 16.4869 15.4782 16.2433 15.6838 15.9764C15.9933 15.5722 16.2714 15.1565 16.2224 14.6228C16.1928 14.1911 16.0286 13.779 15.7524 13.4432C15.1924 12.7292 14.7155 11.9553 14.3305 11.1361C14.1055 10.6403 13.9094 10.1322 13.743 9.61425C13.7273 9.56978 13.7018 9.52723 13.647 9.42088C13.5711 9.73846 13.5678 10.0687 13.6372 10.3878C13.7558 10.8828 13.9278 11.3638 14.1503 11.8226C14.5049 12.5656 14.9133 13.2823 15.3724 13.9672C15.522 14.1773 15.5977 14.43 15.5879 14.6866C15.5767 15.0332 15.4762 15.3713 15.2961 15.6689C15.1335 15.9339 14.9239 16.1795 14.8574 16.4947C14.8261 16.632 14.8276 16.7747 14.862 16.9113C14.8963 17.0479 14.9625 17.1748 15.0552 17.2817ZM22.8362 16.8505C23.3239 17.0439 23.7939 16.9143 24.3286 16.748C23.9898 16.5043 23.6138 16.5237 23.3102 16.3612C23.3435 16.2974 23.365 16.2433 23.3964 16.1949C23.7923 15.6085 24.0807 14.9578 24.2483 14.2727C24.3129 14.0291 24.309 13.768 24.3678 13.5224C24.4532 13.0321 24.4392 12.53 24.3266 12.045C24.3266 12.0083 24.2757 11.9773 24.2307 11.9193C24.1746 12.5743 24.0526 13.2221 23.8664 13.8531C23.6442 14.5719 23.3091 15.2519 22.8734 15.8681C22.7549 16.0032 22.6866 16.1742 22.6799 16.3528C22.6731 16.5315 22.7283 16.707 22.8362 16.8505ZM14.2992 16.7054C14.3337 16.5372 14.3307 16.3636 14.2904 16.1967C14.2502 16.0297 14.1736 15.8734 14.0661 15.7386C13.8332 15.4059 13.6363 15.0501 13.4786 14.6769C13.0905 13.8436 12.8653 12.9454 12.8146 12.0296C12.8008 11.9727 12.7791 11.918 12.75 11.8671C12.6037 12.3646 12.5597 12.886 12.6208 13.4006C12.7439 14.4512 13.112 15.4592 13.696 16.3458C13.3983 16.5391 13.0105 16.4734 12.7383 16.7519C13.0715 16.8733 13.4231 16.9386 13.7782 16.9452C13.8789 16.9553 13.9804 16.9383 14.0721 16.8961C14.1638 16.8539 14.2422 16.788 14.2992 16.7054ZM17.1233 26.473C17.1096 26.4343 17.0939 26.3976 17.0822 26.3589C16.9066 25.8212 16.7833 25.2682 16.714 24.7075C16.6807 24.4445 16.6729 24.1757 16.6317 23.9146C16.5642 23.4335 16.5642 22.9454 16.6317 22.4643C16.6526 22.304 16.6324 22.1411 16.573 21.9905C16.5042 21.857 16.405 21.7412 16.2831 21.6521C16.2361 21.6115 16.1362 21.6269 16.0618 21.6173C15.9025 22.456 15.9285 23.3188 16.1382 24.1467C16.3066 24.9801 16.5358 25.7981 17.1233 26.473ZM14.2326 19.4901C14.2384 19.4077 14.2275 19.325 14.2005 19.2469C14.1734 19.1687 14.1308 19.0967 14.0751 19.0351C14.0195 18.9734 13.9519 18.9234 13.8763 18.888C13.8008 18.8526 13.7188 18.8324 13.6353 18.8287C13.2886 18.7804 12.94 18.7456 12.5973 18.6856C11.6446 18.5294 10.7207 18.2348 9.85537 17.8116C9.73199 17.7497 9.59685 17.713 9.4108 17.6433C10.2118 18.5928 12.7637 19.5365 14.2326 19.4901ZM20.9913 21.6173C20.911 21.6118 20.8305 21.6237 20.7554 21.6522C20.6802 21.6806 20.6123 21.725 20.5563 21.7821C20.5004 21.8392 20.4577 21.9077 20.4314 21.9827C20.405 22.0578 20.3956 22.1377 20.4038 22.2167C20.4038 22.4701 20.4645 22.7234 20.4528 22.9748C20.4273 23.5162 20.3705 24.0558 20.3313 24.5953C20.2973 25.0326 20.2105 25.4643 20.0728 25.8813C20.0101 26.0746 19.967 26.268 19.9063 26.4943C20.5859 25.9393 21.2577 23.435 20.9913 21.625V21.6173ZM22.8245 19.5133C23.1241 19.4785 23.4238 19.4553 23.7176 19.4031C24.4089 19.2917 25.0837 19.0968 25.727 18.8229C26.258 18.606 26.7647 18.3351 27.2389 18.0146C27.3735 17.919 27.4813 17.7913 27.5523 17.6433C27.3075 17.7574 27.0705 17.8812 26.8237 17.9798C26.0611 18.3022 25.2642 18.539 24.4481 18.6856C24.1014 18.7398 23.7548 18.7862 23.4062 18.8171C23.3125 18.8248 23.2215 18.8516 23.1388 18.8959C23.0562 18.9402 22.9839 19.001 22.9263 19.0743C22.8678 19.1313 22.827 19.2037 22.809 19.2829C22.7909 19.3621 22.7963 19.4448 22.8245 19.521V19.5133ZM13.1476 10.4632H13.0888C13.0713 10.5099 13.0601 10.5586 13.0555 10.6082C13.0586 10.9769 13.0855 11.3451 13.1358 11.7105C13.2396 12.2995 13.3989 12.8776 13.6118 13.4373C13.8429 14.0055 14.1282 14.5507 14.4637 15.0656C14.5146 15.1468 14.5655 15.2242 14.683 15.1855C14.7983 15.075 14.8672 14.9259 14.8763 14.7676C14.8854 14.6092 14.8339 14.4533 14.732 14.3308C14.687 14.2631 14.6458 14.1935 14.6047 14.1238C14.0073 13.1845 13.5712 12.1541 13.3141 11.0743C13.2671 10.8673 13.2063 10.6662 13.1476 10.4632ZM23.884 10.4864C23.7861 10.8171 23.6882 11.1439 23.5922 11.4765C23.3328 12.4505 22.9126 13.3756 22.3486 14.2147C22.267 14.3198 22.2096 14.4413 22.1805 14.5705C22.1514 14.6998 22.1513 14.8338 22.1801 14.9631L22.4112 15.2493C23.4394 13.7951 23.978 12.2442 23.884 10.4864ZM16.4085 11.2096L17.5836 12.4627C17.6854 12.4627 17.7442 12.4801 17.8029 12.4801C18.0928 12.4801 18.2064 12.4105 18.2965 12.1378C18.3266 12.0389 18.3392 11.9355 18.3337 11.8323C18.3337 11.2831 18.32 10.732 18.3121 10.1673C18.1359 10.2041 18.1163 10.3452 18.0751 10.4555C17.9498 10.831 17.8741 11.221 17.8499 11.6157C17.8499 11.7163 17.8754 11.8304 17.75 11.9019C17.3485 11.6428 17.0274 11.2348 16.4085 11.2096ZM19.9435 28.5692C20.1805 28.9869 20.1394 29.453 20.3685 29.8552L20.5957 29.7585C20.4625 29.2286 20.3333 28.7162 20.204 28.2115L20.349 27.9562L19.9161 28.0877C19.779 28.5789 19.6439 29.072 19.4931 29.6115C19.1171 29.188 18.9055 28.7162 18.5706 28.3198H18.1417L18.3513 28.5131C18.3748 28.9715 18.3983 29.422 18.4218 29.8668C18.4158 29.9014 18.4158 29.9367 18.4218 29.9712C18.4531 30.0254 18.4962 30.0737 18.5648 30.1646C18.6216 30.0582 18.6823 29.9944 18.6842 29.9306C18.6839 29.7805 18.6727 29.6306 18.6509 29.482C18.6146 29.2429 18.6146 28.9998 18.6509 28.7607C18.9506 29.1745 19.2111 29.5342 19.5127 29.9577C19.7105 29.482 19.7692 29.0275 19.9435 28.5692ZM19.2111 11.9677C19.1758 11.6931 19.1582 11.4881 19.121 11.285C19.0773 11.0123 19.0198 10.7419 18.9486 10.4748C18.9361 10.4035 18.9092 10.3355 18.8695 10.2747C18.8298 10.2139 18.7781 10.1616 18.7175 10.1209C18.7058 10.1686 18.698 10.2171 18.694 10.2659C18.6901 10.8345 18.6901 11.4146 18.6901 11.9735C18.6854 12.072 18.7076 12.17 18.7545 12.2571C18.8014 12.3442 18.8711 12.4172 18.9565 12.4685C19.0648 12.5 19.1797 12.5022 19.2892 12.475C19.3987 12.4478 19.4989 12.3921 19.5793 12.3138C19.8495 12.0257 20.1218 11.7337 20.3901 11.4494C20.443 11.3953 20.4841 11.3295 20.5742 11.2135C19.9886 11.2599 19.6419 11.608 19.2111 11.9677ZM18.6235 16.3806C18.6479 16.4553 18.6774 16.5283 18.7117 16.5991C18.74 16.6497 18.7756 16.6959 18.8174 16.7364C19.0385 16.9619 19.3135 17.1289 19.617 17.2222C19.9205 17.3154 20.2429 17.3319 20.5546 17.2701C20.6855 17.261 20.8118 17.2185 20.921 17.1466C21.0302 17.0747 21.1186 16.976 21.1774 16.8602C21.1774 16.7229 21.2244 16.5623 21.0462 16.4502L20.9091 16.5372C20.7879 16.6231 20.6499 16.6832 20.5039 16.7135C20.3578 16.7438 20.207 16.7437 20.0611 16.7132C19.8122 16.6564 19.5685 16.5795 19.3325 16.4831C19.168 16.4212 19.0172 16.3303 18.8566 16.2568C18.8189 16.2473 18.7799 16.2434 18.741 16.2452L18.6235 16.3806ZM15.8033 16.7557C15.911 17.1734 16.2479 17.2488 16.5867 17.2875C17.0929 17.3459 17.6023 17.2072 18.0066 16.9008C18.1836 16.7794 18.3075 16.5963 18.3533 16.3883L18.2357 16.2394L17.7853 16.4328C17.5679 16.5179 17.3525 16.6068 17.1312 16.6803C16.9664 16.7416 16.789 16.7623 16.6143 16.7407C16.4396 16.7192 16.2728 16.656 16.1284 16.5565C16.0656 16.5229 16.0001 16.4945 15.9326 16.4715L15.8033 16.7557ZM23.9428 25.4578C23.5903 25.5738 23.3885 25.7478 23.0928 26.1752C23.6 26.4595 23.931 26.9603 24.4422 27.2813L24.5597 27.0879L24.0368 26.5852C24.1308 26.5329 24.1993 26.4614 24.2601 26.4672C24.5029 26.4846 24.7438 26.5271 25.0062 26.562C25.1002 26.5175 25.2373 26.4981 25.2785 26.3067C25.1022 26.3067 24.9416 26.3067 24.783 26.2912C24.6243 26.2758 24.4657 26.2351 24.3051 26.2061L24.2757 25.7459L23.9428 25.4578ZM18.7136 15.3093C18.6925 15.3623 18.6904 15.4209 18.7074 15.4754C18.7245 15.5298 18.7598 15.577 18.8076 15.609C19.1398 15.884 19.5248 16.0899 19.9396 16.2143C20.0646 16.2422 20.1947 16.2382 20.3176 16.2027C20.3764 16.1879 20.4287 16.1546 20.4665 16.1079C20.5043 16.0611 20.5256 16.0034 20.5272 15.9435C20.2726 15.8101 20.018 15.6786 19.7653 15.5432C19.5891 15.4504 19.4167 15.3499 19.2424 15.259C19.1607 15.2094 19.0649 15.1875 18.9695 15.1966C18.874 15.2057 18.7842 15.2452 18.7136 15.3093ZM18.2044 15.2358C17.9302 15.1236 17.7148 15.2532 17.4994 15.3711C17.2154 15.5297 16.9314 15.6921 16.6494 15.8546C16.5808 15.8933 16.5162 15.9377 16.4339 15.9899L16.6592 16.2491C17.3505 16.2162 17.8343 15.8797 18.273 15.5065C18.2792 15.4512 18.2792 15.3955 18.273 15.3402C18.255 15.3025 18.2319 15.2674 18.2044 15.2358ZM16.6513 29.979L17.8871 28.3256L17.4954 28.2598L17.5601 28.4919C17.2918 28.8342 17.0783 29.2325 16.7395 29.5961L16.5436 28.1225C16.3752 27.9833 16.3752 27.9833 16.2165 27.993C16.2635 28.2327 16.3184 28.4764 16.3595 28.722C16.4143 29.0623 16.4535 29.4046 16.5084 29.7469C16.524 29.8011 16.5789 29.8533 16.6513 29.979ZM23.0752 28.4667C23.271 28.3468 23.224 28.2076 23.2005 28.0916C23.1378 27.7764 23.0517 27.465 22.9851 27.1498C22.9361 26.9158 22.8264 26.6896 22.9204 26.3763C22.7833 26.4722 22.6674 26.5945 22.5797 26.736L22.7559 26.7708C22.8029 27.0067 22.8343 27.233 22.895 27.4534C22.9763 27.6783 23.0258 27.9133 23.0419 28.1515C22.562 27.8982 22.2095 27.5327 21.7414 27.3123L21.4496 27.4708C21.5792 27.4933 21.6992 27.5532 21.7943 27.6429C22.2154 27.9098 22.6502 28.1863 23.0752 28.4629V28.4667ZM12.1213 26.384L12.0724 26.3241L12.8323 25.0343L12.6776 24.7732L11.6983 26.4981L11.8354 26.6238L13.6353 26.123L13.4257 25.8523C13.3924 26.0456 13.2455 26.0862 13.1202 26.1327C13.0089 26.1665 12.8958 26.1943 12.7814 26.2158C12.5659 26.27 12.3446 26.328 12.1213 26.384ZM26.904 22.298C26.5397 22.093 26.3537 22.1162 26.0638 22.3985L25.7191 22.7292L25.4978 22.7079C25.3216 22.4681 25.4019 22.2651 25.5429 22.0698L25.8014 21.9886L25.5096 21.8783C25.2922 22.1897 25.1453 22.4797 25.3901 22.8104C25.7328 23.0038 25.8758 22.9883 26.1441 22.7389C26.2714 22.6209 26.3948 22.4971 26.5084 22.3888H26.7924C26.8338 22.4707 26.8691 22.5553 26.8981 22.6422C26.9647 22.8839 26.7571 23.0521 26.669 23.2939C27.0685 23.0367 27.1351 22.7041 26.904 22.298ZM12.423 24.605L12.517 24.5315L11.7982 23.0541L11.5358 23.1817L11.7571 23.2571L11.9745 23.7058C11.5299 24.0229 11.0089 24.1795 10.5408 24.4793L10.6642 24.7036L12.1116 23.9842L12.423 24.605ZM11.1813 22.0369C11.0274 22.0676 10.8892 22.1506 10.7908 22.2714C10.6925 22.3922 10.64 22.5432 10.6427 22.6983C10.6383 22.8732 10.5891 23.0441 10.4997 23.1952C10.4546 23.2062 10.4088 23.2146 10.3626 23.2204C10.3058 23.2204 10.2471 23.2204 10.2001 23.2204C10.1054 23.1504 10.0332 23.0551 9.99186 22.9457C9.95054 22.8363 9.94191 22.7176 9.96701 22.6035C9.96701 22.5648 9.93371 22.5223 9.89846 22.4391C9.80837 23.0444 9.93176 23.2668 10.4331 23.4312L10.7543 23.2707C11.0187 22.9322 10.8973 22.5397 11.1147 22.2187L11.4574 22.3308C11.5828 22.6886 11.5828 22.6886 11.4398 22.9728L11.7101 22.8568C11.6631 22.4797 11.5906 22.1607 11.1813 22.0369ZM14.969 29.3137C15.0124 29.2575 15.0523 29.1988 15.0885 29.1378C15.251 28.8168 15.4273 28.5015 15.5663 28.1709C15.5939 28.0857 15.6454 28.0101 15.7147 27.9526C15.784 27.8951 15.8683 27.8581 15.958 27.846L15.4743 27.5849C15.3764 28.1767 14.9709 28.6292 14.7947 29.1822L14.969 29.3137ZM24.9925 23.2107L24.7869 23.6323C24.9232 23.6437 25.0578 23.6696 25.1884 23.7096C25.5801 23.8759 25.9522 24.0616 26.3341 24.2375C26.3729 24.2491 26.4131 24.2556 26.4536 24.2569L26.4653 24.019C26.0521 23.8256 25.6486 23.6323 25.255 23.4273C25.1595 23.3651 25.0714 23.2925 24.9925 23.2107ZM20.5546 18.3936C20.6882 18.4129 20.8245 18.3936 20.9472 18.338C21.0699 18.2824 21.1736 18.1929 21.2459 18.0804C21.3196 18.0006 21.3673 17.9007 21.3826 17.7938C21.398 17.6868 21.3804 17.5778 21.3321 17.4809C21.2101 17.5719 21.0833 17.6565 20.9522 17.7342C20.8247 17.7995 20.694 17.8582 20.5605 17.9102L20.5546 18.3936ZM15.6427 17.508C15.5193 17.9914 15.7445 18.2815 16.3673 18.4401C16.4495 18.2866 16.4671 18.1073 16.4163 17.9411L15.6427 17.508ZM15.8895 19.1227C15.9461 19.2411 16.0319 19.3437 16.139 19.421C16.246 19.4984 16.371 19.5481 16.5025 19.5655L16.4065 19.0279L15.8895 18.7437V19.1227ZM20.4723 19.5094C20.7563 19.5578 20.8738 19.3799 20.9913 19.231C21.0484 19.1656 21.0847 19.0851 21.0958 18.9995C21.107 18.9139 21.0924 18.827 21.054 18.7495L20.6192 19.0009C20.6011 19.0296 20.586 19.06 20.5742 19.0917C20.5409 19.2252 20.5095 19.3567 20.4723 19.5114V19.5094Z" fill="white"></path>
    <path d="M25.7857 25.4423C25.4293 25.5158 25.2472 25.2372 24.9906 25.0903C25.0435 25.0037 25.1017 24.9204 25.1649 24.8408C25.2205 24.7649 25.3034 24.7128 25.3966 24.6952C25.4898 24.6776 25.5863 24.6958 25.6663 24.7461C25.7526 24.7836 25.8223 24.8506 25.8626 24.9348C25.9029 25.019 25.9111 25.1147 25.8857 25.2044C25.8692 25.2699 25.8489 25.3345 25.8249 25.3977C25.8258 25.4033 25.8254 25.4089 25.8238 25.4143C25.8223 25.4197 25.8195 25.4247 25.8158 25.4289C25.8121 25.4332 25.8074 25.4365 25.8023 25.4388C25.7971 25.4411 25.7914 25.4424 25.7857 25.4423Z" fill="white"></path>
    <path d="M19.1053 19.7589C19.0258 19.873 18.9152 19.9626 18.7863 20.0174C18.6574 20.0721 18.5154 20.0898 18.3768 20.0683C18.1809 20.0296 17.9616 19.9774 17.9106 19.7144C18.0375 19.6508 18.1817 19.6291 18.3219 19.6525C18.4524 19.6446 18.5832 19.6446 18.7136 19.6525C18.839 19.6661 18.9917 19.6061 19.1053 19.7589Z" fill="white"></path>
    <path d="M17.0822 18.3994L17.3623 18.1519C17.8911 18.0823 17.9733 18.1093 18.1457 18.3936C18.1408 18.4191 18.1308 18.4433 18.1162 18.4649C18.1017 18.4864 18.0829 18.5049 18.0609 18.5191C18.039 18.5334 18.0144 18.5431 17.9886 18.5478C17.9628 18.5525 17.9363 18.552 17.9107 18.5464C17.6502 18.5251 17.374 18.6334 17.0822 18.3994Z" fill="white"></path>
    <path d="M19.6184 18.1307L19.8495 18.3762C19.8103 18.4343 19.7888 18.5 19.7614 18.5039C19.5205 18.5271 19.2757 18.5484 19.0328 18.5522C18.9662 18.5522 18.8977 18.4903 18.7919 18.4362L19.0818 18.1307H19.6184Z" fill="white"></path>
    <path d="M18.1906 19.1691C18.5373 18.9757 18.5823 18.9757 18.8134 19.2C18.5726 19.3973 18.4413 19.3953 18.1906 19.1691Z" fill="white"></path>
    <path d="M24.1269 26.3628L23.9467 26.5252L23.3592 25.9876L23.5864 25.7421C23.841 25.686 23.9781 25.8233 24.123 25.9818L24.1269 26.3628Z" fill="white"></path>
    <path d="M25.0748 24.6824L24.9201 25.044L24.3482 24.7075C24.4579 24.4097 24.4599 24.4097 24.8163 24.4155L25.0748 24.6824Z" fill="white"></path>
</svg>