<svg data-v-491594ae="" xmlns="http://www.w3.org/2000/svg" width="80" height="80" viewBox="0 0 80 80" fill="none" class=""><path fill-rule="evenodd" clip-rule="evenodd" d="M40 80C62.0914 80 80 62.0914 80 40C80 17.9086 62.0914 0 40 0C17.9086 0 0 17.9086 0 40C0 62.0914 17.9086 80 40 80Z" fill="#E44240"></path><path fill-rule="evenodd" clip-rule="evenodd" d="M56.6074 29.3809C55.1343 28.0278 54.8535 27.8217 54.2568 27.6562C53.3644 27.4086 52.7451 27.4513 51.9881 27.8128C51.815 27.8955 48.2048 31.1982 43.9653 35.1523L36.2573 42.3413L33.7047 39.9779C32.173 38.5596 30.9257 37.5043 30.5856 37.3389C29.8217 36.9675 28.5985 36.9561 27.8789 37.3138C27.0905 37.7058 24.107 40.603 23.9061 41.1717C23.6619 41.8624 23.708 42.7678 24.0176 43.3648C24.2022 43.7209 25.8489 45.3356 29.4173 48.6597C34.3211 53.2277 34.5821 53.4506 35.2353 53.6294C36.086 53.8623 36.2881 53.8624 37.1408 53.631C37.8056 53.4505 38.1115 53.1776 48.0567 43.8973C55.4285 37.0183 58.3639 34.2048 58.5578 33.8322C58.9148 33.146 58.9102 32.1331 58.5466 31.4316C58.3831 31.116 57.6346 30.3245 56.6074 29.3809Z" fill="white"></path></svg>