<svg data-v-55143e9c="" xmlns="http://www.w3.org/2000/svg" width="24" height="24" viewBox="0 0 24 24" fill="none"><path d="M12.972 3.03906H10.4045C10.065 3.03906 9.78909 3.31493 9.78909 3.65443C9.78909 3.99394 10.065 4.2698 10.4045 4.2698H12.972C13.3115 4.2698 13.5874 3.99394 13.5874 3.65443C13.5874 3.31493 13.3115 3.03906 12.972 3.03906ZM19.826 7.09204L18.1497 5.4157C17.9162 5.18228 17.5343 5.18228 17.2797 5.4157C17.0462 5.64912 17.0462 6.03107 17.2797 6.28569L18.9348 7.94083C19.0621 8.06816 19.2107 8.1106 19.3592 8.1106C19.5077 8.1106 19.6775 8.04696 19.7836 7.94083C20.0594 7.70741 20.0594 7.32546 19.826 7.09204ZM11.6776 5.60663C7.4337 5.60663 3.99609 9.04424 3.99609 13.2882C3.99609 17.5321 7.4337 20.9697 11.6776 20.9697C15.9216 20.9697 19.3592 17.5321 19.3592 13.2882C19.3592 9.04424 15.9216 5.60663 11.6776 5.60663ZM14.8606 14.1157H11.6776C11.3381 14.1157 11.0623 13.8399 11.0623 13.5004V9.51108C11.0623 9.17157 11.3381 8.89571 11.6776 8.89571C12.0172 8.89571 12.293 9.17157 12.293 9.51108V12.9062H14.8606C15.2001 12.9062 15.476 13.1821 15.476 13.5216C15.476 13.8399 15.2001 14.1157 14.8606 14.1157Z" fill="#111113"></path></svg>